# xmcd
# 
# Track frame offsets:
#     150
#     26498
#     41371
#     87315
#     132200
#     160878
#     218629
#     243579
#     273492
# 
# Disc length: 4166
# 
# Revision: 0
# Processed by: cddbd v1.5.2PL0 Copyright (c) Steve Scherf et al.
# Submitted via: fre:ac v1.1beta1pre4
# 
DISCID=74104409
DTITLE=Tedeschi Trucks Band - 20170729 Red Rocks D2
DYEAR=2017
DGENRE=Blues
TTITLE0=Ali
TTITLE1=Drumz
TTITLE2=Let Me Get By
TTITLE3=Angel From Montgomery -> Sugaree
TTITLE4=How Blue Can You Get
TTITLE5=I Want More
TTITLE6=Get What You Deserve
TTITLE7=Let Me Roll It
TTITLE8=I Wish I Knew How It Would Feel To Be Free
EXTD=
EXTT0=
EXTT1=
EXTT2=
EXTT3=
EXTT4=
EXTT5=
EXTT6=
EXTT7=
EXTT8=
PLAYORDER=
